<?xml version="1.0" encoding="UTF-8" standalone="no"?>
<!-- Generator: Adobe Illustrator 18.0.0, SVG Export Plug-In . SVG Version: 6.00 Build 0)  -->

<svg
   xmlns:dc="http://purl.org/dc/elements/1.1/"
   xmlns:cc="http://creativecommons.org/ns#"
   xmlns:rdf="http://www.w3.org/1999/02/22-rdf-syntax-ns#"
   xmlns:svg="http://www.w3.org/2000/svg"
   xmlns="http://www.w3.org/2000/svg"
   xmlns:sodipodi="http://sodipodi.sourceforge.net/DTD/sodipodi-0.dtd"
   xmlns:inkscape="http://www.inkscape.org/namespaces/inkscape"
   version="1.1"
   id="Capa_1"
   x="0px"
   y="0px"
   viewBox="0 0 141.35 141.35"
   style="enable-background:new 0 0 141.35 141.35;"
   xml:space="preserve"
   sodipodi:docname="cloud_MQTT.svg"
   inkscape:version="0.92.2 (5c3e80d, 2017-08-06)"><metadata
     id="metadata41"><rdf:RDF><cc:Work
         rdf:about=""><dc:format>image/svg+xml</dc:format><dc:type
           rdf:resource="http://purl.org/dc/dcmitype/StillImage" /></cc:Work></rdf:RDF></metadata><defs
     id="defs39" /><sodipodi:namedview
     pagecolor="#ffffff"
     bordercolor="#666666"
     borderopacity="1"
     objecttolerance="10"
     gridtolerance="10"
     guidetolerance="10"
     inkscape:pageopacity="0"
     inkscape:pageshadow="2"
     inkscape:window-width="1261"
     inkscape:window-height="854"
     id="namedview37"
     showgrid="false"
     inkscape:zoom="4.7223825"
     inkscape:cx="66.16405"
     inkscape:cy="88.188304"
     inkscape:window-x="640"
     inkscape:window-y="99"
     inkscape:window-maximized="0"
     inkscape:current-layer="Capa_1" /><g
     id="g4"><path
       style="fill:#426170;"
       d="M115.366,115.273H25.985C11.657,115.273,0,103.616,0,89.289c0-6.941,2.702-13.469,7.609-18.375   c4.804-4.803,11.187-7.504,17.972-7.605c0.019-0.001,0.038-0.001,0.057-0.001c0.02,0,0.125,0,0.195-0.001   c0.015-0.001,0.032-0.001,0.047-0.001c1.774-0.07,3.163-1.515,3.163-3.297c0-9.063,3.53-17.584,9.939-23.994   c6.41-6.408,14.93-9.938,23.994-9.938c7.774,0,15.372,2.697,21.393,7.593c4.684,3.809,8.268,8.817,10.375,14.41   c2.02-0.725,4.161-1.099,6.353-1.099c9.654,0,17.629,7.316,18.676,16.695c5.396,0.919,10.357,3.519,14.236,7.513   c4.735,4.876,7.341,11.303,7.341,18.1C141.35,103.616,129.693,115.273,115.366,115.273z M25.667,70.824   c-4.81,0.08-9.336,1.999-12.744,5.405c-3.486,3.486-5.405,8.125-5.405,13.06c0,10.183,8.284,18.467,18.467,18.467h89.381   c10.183,0,18.467-8.284,18.467-18.467c0-4.83-1.853-9.398-5.216-12.863c-3.358-3.457-7.853-5.443-12.66-5.594   c-1.032-0.033-2.004-0.488-2.691-1.259c-0.686-0.771-1.025-1.79-0.936-2.819c0.028-0.332,0.042-0.661,0.042-0.979   c0-6.217-5.058-11.275-11.275-11.275c-2.342,0-4.586,0.711-6.49,2.055c-1.029,0.725-2.352,0.887-3.525,0.434   c-1.173-0.456-2.042-1.467-2.313-2.696c-1.274-5.778-4.521-11.031-9.142-14.789c-4.685-3.81-10.598-5.908-16.65-5.908   c-14.566,0-26.416,11.851-26.416,26.415c0,2.825-1.083,5.498-3.048,7.526c-1.957,2.021-4.582,3.186-7.388,3.283   C26.037,70.821,25.909,70.824,25.667,70.824z"
       id="path2" /></g><g
     id="g6" /><g
     id="g8" /><g
     id="g10" /><g
     id="g12" /><g
     id="g14" /><g
     id="g16" /><g
     id="g18" /><g
     id="g20" /><g
     id="g22" /><g
     id="g24" /><g
     id="g26" /><g
     id="g28" /><g
     id="g30" /><g
     id="g32" /><g
     id="g34" /><text
     xml:space="preserve"
     style="font-style:normal;font-weight:normal;font-size:16px;line-height:1.25;font-family:sans-serif;letter-spacing:0px;word-spacing:0px;fill:#000000;fill-opacity:1;stroke:none"
     x="39.810413"
     y="78.458023"
     id="text3734"><tspan
       sodipodi:role="line"
       id="tspan3732"
       x="39.810413"
       y="92.614273"></tspan></text>
<text
     xml:space="preserve"
     style="font-style:normal;font-weight:normal;font-size:13.33333302px;line-height:1.25;font-family:sans-serif;letter-spacing:0px;word-spacing:0px;fill:#000000;fill-opacity:1;stroke:none"
     x="36.845806"
     y="74.646385"
     id="text3742"><tspan
       sodipodi:role="line"
       id="tspan3740"
       x="36.845806"
       y="86.44326" /></text>
<text
     xml:space="preserve"
     style="font-style:normal;font-weight:normal;font-size:12px;line-height:1.25;font-family:sans-serif;letter-spacing:0px;word-spacing:0px;fill:#000000;fill-opacity:1;stroke:none"
     x="36.845806"
     y="71.470024"
     id="text3746"><tspan
       sodipodi:role="line"
       id="tspan3744"
       x="36.845806"
       y="71.470024">RESTFul API</tspan></text>
<text
     xml:space="preserve"
     style="font-style:normal;font-weight:normal;font-size:12px;line-height:1.25;font-family:sans-serif;letter-spacing:0px;word-spacing:0px;fill:#000000;fill-opacity:1;stroke:none"
     x="37.057564"
     y="84.387238"
     id="text3750"><tspan
       sodipodi:role="line"
       id="tspan3748"
       x="37.057564"
       y="84.387238">MQTT</tspan></text>
<text
     xml:space="preserve"
     style="font-style:normal;font-weight:normal;font-size:12px;line-height:1.25;font-family:sans-serif;letter-spacing:0px;word-spacing:0px;fill:#000000;fill-opacity:1;stroke:none"
     x="37.692837"
     y="99.633774"
     id="text3754"><tspan
       sodipodi:role="line"
       id="tspan3752"
       x="37.692837"
       y="99.633774">MongoDB</tspan></text>
</svg>