<?xml version="1.0" encoding="iso-8859-1"?>
<!-- Generator: Adobe Illustrator 19.0.0, SVG Export Plug-In . SVG Version: 6.00 Build 0)  -->
<svg xmlns="http://www.w3.org/2000/svg" xmlns:xlink="http://www.w3.org/1999/xlink" version="1.1" id="Capa_1" x="0px" y="0px" viewBox="0 0 505 505" style="enable-background:new 0 0 505 505;" xml:space="preserve" width="512" height="512">
<g>
	<path style="fill:#FFA317;" d="M408.327,358.5c0,76.768-62.232,139-139,139h-33.654c-76.768,0-139-62.232-139-139v-212   c0-76.768,62.232-139,139-139h33.654c76.768,0,139,62.232,139,139V358.5z"/>
	<path style="fill:#5A9DEE;" d="M225.187,123.16c0-15.085,12.229-27.313,27.313-27.313l0,0c15.085,0,27.313,12.229,27.313,27.313   v56.366c0,15.084-12.228,27.313-27.313,27.313l0,0c-15.085,0-27.313-12.229-27.313-27.313V123.16z"/>
	<g>
		<path style="fill:#214245;" d="M269.327,0h-33.654c-80.78,0-146.5,65.72-146.5,146.5v212c0,80.78,65.72,146.5,146.5,146.5h33.654    c80.78,0,146.5-65.72,146.5-146.5v-212C415.827,65.72,350.107,0,269.327,0z M252.5,199.339c-10.925,0-19.813-8.888-19.813-19.813    V123.16c0-10.925,8.889-19.813,19.813-19.813s19.813,8.888,19.813,19.813v56.366C272.313,190.451,263.425,199.339,252.5,199.339z     M400.827,358.5c0,72.509-58.99,131.5-131.5,131.5h-33.654c-72.51,0-131.5-58.991-131.5-131.5v-212    c0-72.509,58.99-131.5,131.5-131.5H245v74.169c-15.603,3.44-27.313,17.37-27.313,33.991v56.366    c0,16.621,11.711,30.55,27.313,33.991v33.326h15v-33.326c15.602-3.44,27.313-17.37,27.313-33.991V123.16    c0-16.621-11.711-30.551-27.313-33.991V15h9.327c72.51,0,131.5,58.991,131.5,131.5V358.5z"/>
		<path style="fill:#214245;" d="M269.327,460v15c64.238,0,116.5-52.262,116.5-116.5h-15C370.827,414.467,325.294,460,269.327,460z"/>
		<rect x="245" y="266.845" style="fill:#214245;" width="15" height="30.003"/>
	</g>
</g>















</svg>
