<?xml version="1.0" encoding="iso-8859-1"?>
<!-- Generator: Adobe Illustrator 19.0.0, SVG Export Plug-In . SVG Version: 6.00 Build 0)  -->
<svg version="1.1" id="Layer_1" xmlns="http://www.w3.org/2000/svg" xmlns:xlink="http://www.w3.org/1999/xlink" x="0px" y="0px"
	 viewBox="0 0 512 512" style="enable-background:new 0 0 512 512;" xml:space="preserve">
<g>
	<path style="fill:#CCC4C1;" d="M56.449,56.449c-4.523,4.523-4.523,11.858,0,16.383L81.508,97.89l16.382-16.383L72.83,56.449
		C68.307,51.926,60.972,51.926,56.449,56.449z"/>
	<path style="fill:#CCC4C1;" d="M56.449,439.169c-4.523,4.523-4.525,11.858,0,16.383c2.262,2.261,5.227,3.393,8.191,3.393
		c2.964,0,5.93-1.132,8.191-3.393l25.057-25.057l-16.382-16.383L56.449,439.169z"/>
	<path style="fill:#CCC4C1;" d="M430.492,414.11l-16.383,16.383l25.059,25.059c2.262,2.261,5.227,3.393,8.191,3.393
		s5.929-1.132,8.191-3.393c4.523-4.523,4.523-11.858,0-16.383L430.492,414.11z"/>
	<path style="fill:#CCC4C1;" d="M455.551,72.831c4.523-4.523,4.523-11.858,0-16.383c-4.525-4.522-11.857-4.522-16.383,0
		l-25.057,25.057l16.383,16.383L455.551,72.831z"/>
</g>
<path style="fill:#FFE1D6;" d="M500.416,256c0-134.987-109.429-244.416-244.416-244.416S11.584,121.013,11.584,256
	S121.013,500.416,256,500.416S500.416,390.987,500.416,256z M256,397.321c-78.05,0-141.321-63.271-141.321-141.321
	S177.95,114.679,256,114.679S397.321,177.95,397.321,256S334.05,397.321,256,397.321z"/>
<g>
	<path style="fill:#EE3840;" d="M323.774,138.612c20.567,11.9,37.714,29.047,49.614,49.614l100.497-58.022
		c-22.088-38.174-53.9-70.017-92.074-92.104C381.785,38.134,323.774,138.612,323.774,138.612z"/>
	<path style="fill:#EE3840;" d="M138.612,323.774L38.134,381.785c22.054,38.2,53.897,70.012,92.071,92.1l58.022-100.497
		C167.659,361.488,150.512,344.341,138.612,323.774z"/>
	<path style="fill:#EE3840;" d="M188.239,138.604l-58.02-100.497c-38.174,22.088-70.017,53.901-92.104,92.075
		c0.034,0.025,100.505,58.032,100.505,58.032C150.521,167.649,167.671,150.501,188.239,138.604z"/>
	<path style="fill:#EE3840;" d="M473.898,381.788l-100.503-58.025c-11.898,20.567-29.044,37.717-49.607,49.618l58.011,100.478
		C419.998,451.804,451.81,419.962,473.898,381.788z"/>
</g>
<path style="fill:#11113F;" d="M512,256c0-41.392-10.028-82.154-29.072-118.572c0.988-1.237,1.729-2.671,2.146-4.23
	c0.795-2.97,0.375-6.134-1.164-8.794c-9.603-16.597-20.99-32.028-33.855-46.078l5.495-5.495c4.523-4.523,4.523-11.858,0-16.383
	c-4.525-4.522-11.857-4.522-16.383,0l-5.491,5.491c-14.05-12.876-29.478-24.267-46.066-33.866c-4.203-2.433-9.377-1.915-13.033,1
	C338.157,10.028,297.393,0,256,0c-41.391,0-82.153,10.028-118.571,29.072c-1.237-0.989-2.671-1.729-4.232-2.146
	c-2.97-0.796-6.134-0.376-8.794,1.164c-16.597,9.603-32.028,20.99-46.078,33.855l-5.495-5.495c-4.523-4.522-11.858-4.522-16.383,0
	c-4.523,4.523-4.523,11.858,0,16.383l5.492,5.492c-12.878,14.05-24.268,29.477-33.866,46.066c-2.436,4.21-1.914,9.384,1,13.036
	C10.028,173.844,0,214.607,0,256c0,41.391,10.028,82.154,29.072,118.572c-0.988,1.237-1.728,2.67-2.146,4.23
	c-0.795,2.969-0.375,6.134,1.164,8.794c9.603,16.597,20.99,32.028,33.855,46.078l-5.495,5.495c-4.523,4.523-4.525,11.858,0,16.383
	c2.262,2.261,5.227,3.393,8.191,3.393c2.964,0,5.93-1.132,8.191-3.393l5.492-5.492c14.05,12.876,29.477,24.267,46.066,33.866
	c1.809,1.047,3.798,1.549,5.77,1.549c2.61,0,5.184-0.886,7.266-2.547C173.845,501.972,214.608,512,256,512
	c41.391,0,82.153-10.028,118.571-29.072c1.237,0.989,2.671,1.729,4.23,2.146c0.986,0.264,1.991,0.394,2.993,0.394
	c2.019,0,4.023-0.528,5.801-1.558c16.597-9.603,32.028-20.99,46.078-33.855l5.495,5.495c2.262,2.261,5.227,3.393,8.191,3.393
	s5.929-1.132,8.191-3.393c4.523-4.523,4.523-11.858,0-16.383l-5.491-5.491c12.876-14.05,24.267-29.478,33.866-46.066
	c2.433-4.203,1.915-9.377-1.001-13.033C501.971,338.157,512,297.393,512,256z M463.196,362.248l-68.888-39.773
	c9.712-20.123,15.157-42.676,15.157-66.477s-5.445-46.352-15.157-66.475l68.887-39.772c16.785,32.709,25.638,69.191,25.638,106.248
	C488.833,293.056,479.98,329.538,463.196,362.248z M256,386.297c-71.846,0-130.297-58.451-130.297-130.297
	S184.154,125.703,256,125.703S386.297,184.154,386.297,256S327.846,386.297,256,386.297z M382.684,169.484
	c-10.786-15.743-24.424-29.382-40.168-40.168l43.382-75.142c28.768,18.559,53.335,43.135,71.909,71.937L382.684,169.484z
	 M362.249,48.804l-39.773,68.888c-20.123-9.712-42.676-15.157-66.477-15.157c-23.8,0-46.352,5.446-66.475,15.157l-39.773-68.887
	C182.462,32.02,218.944,23.167,256,23.167C293.055,23.167,329.538,32.02,362.249,48.804z M126.111,54.191l43.374,75.125
	c-15.743,10.786-29.382,24.424-40.168,40.168L54.175,126.1C72.734,97.332,97.31,72.767,126.111,54.191z M48.804,149.751
	l68.888,39.773c-9.711,20.123-15.157,42.677-15.157,66.477s5.446,46.352,15.157,66.475l-68.888,39.773
	C32.02,329.538,23.167,293.056,23.167,256C23.167,218.943,32.02,182.461,48.804,149.751z M129.316,342.516
	c10.786,15.743,24.424,29.382,40.168,40.168L126.1,457.825c-28.768-18.561-53.335-43.137-71.909-71.936L129.316,342.516z
	 M149.752,463.196l39.773-68.888c20.123,9.712,42.676,15.157,66.475,15.157c23.8,0,46.352-5.445,66.475-15.157l39.773,68.888
	c-32.71,16.785-69.192,25.637-106.248,25.637S182.461,479.98,149.752,463.196z M385.889,457.809l-43.373-75.125
	c15.743-10.786,29.382-24.424,40.168-40.168l75.142,43.382C439.266,414.668,414.69,439.235,385.889,457.809z"/>
<g>
</g>
<g>
</g>
<g>
</g>
<g>
</g>
<g>
</g>
<g>
</g>
<g>
</g>
<g>
</g>
<g>
</g>
<g>
</g>
<g>
</g>
<g>
</g>
<g>
</g>
<g>
</g>
<g>
</g>
</svg>
