<?xml version="1.0" standalone="no"?><!DOCTYPE svg PUBLIC "-//W3C//DTD SVG 1.1//EN" "http://www.w3.org/Graphics/SVG/1.1/DTD/svg11.dtd"><svg class="icon" height="512" viewBox="0 0 1024 1024" version="1.1" xmlns="http://www.w3.org/2000/svg"><path d="M576.085333 684.565333c5.12 0 18.432 0 18.432 17.408 0 7.168-2.730667 17.749333-18.432 17.749334h-114.389333v70.357333c0 10.24 4.778667 16.042667 16.384 16.042667h117.12c18.453333 0 18.453333 15.722667 18.453333 18.112 0 3.754667 0 18.432-18.453333 18.432h-129.066667c-33.130667 0-46.442667-11.605333-46.442666-46.101334v-181.674666c0-33.792 12.970667-46.08 46.442666-46.08h123.264c18.432 0 18.432 15.018667 18.432 18.090666 0 5.802667-1.706667 18.453333-18.432 18.453334H478.08c-11.264 0-16.384 5.802667-16.384 16.042666v63.146667h114.389333zM837.888 831.061333c0 16.384-12.288 18.773333-19.477333 18.773334-11.946667 0-20.48-4.778667-20.48-18.773334v-117.802666c0-16.746667-5.461333-45.098667-42.026667-45.098667-41.621333 0-50.496 36.906667-50.496 50.218667v112.682666c0 15.701333-10.944 18.773333-19.477333 18.773334-12.629333 0-20.48-5.461333-20.48-18.773334v-178.24c0-18.453333 14.336-19.136 19.797333-19.136 11.605333 0 20.16 4.778667 20.16 19.136v12.608c10.24-12.288 28.330667-31.744 62.485333-31.744 43.008 0 69.973333 25.28 69.973334 73.408v123.968zM342.634667 336.213333h84.885333c13.824 0 19.584-7.296 19.584-19.584V241.706667c0-13.824-7.296-19.584-19.584-19.584h-84.885333v114.090666z m-42.261334-114.069333h-84.117333c-13.056 0-19.584 6.144-19.584 19.584v74.88c0 12.714667 5.76 19.626667 19.584 19.626667h84.117333v-114.090667z m42.261334 240.469333c0 4.970667 0 19.584-20.736 19.584-19.605333 0-21.525333-11.52-21.525334-19.584V374.613333H205.888c-34.581333 0-50.709333-11.52-50.709333-50.688V234.026667c0-39.573333 16.512-50.304 50.709333-50.304h94.485333V140.714667c0-5.781333 0.768-19.2 19.989334-19.2 15.744 0 22.272 5.376 22.272 19.2v43.029333h95.253333c34.965333 0 50.709333 11.52 50.709333 50.304v89.898667c0 38.016-14.976 50.688-50.709333 50.688h-95.253333v87.978666zM882.026667 641.770667a21.333333 21.333333 0 0 1-20.693334-26.581334c7.637333-30.058667 11.498667-61.184 11.498667-92.522666 0-205.845333-167.061333-373.333333-372.416-373.333334a21.333333 21.333333 0 0 1 0-42.666666c228.885333 0 415.082667 186.624 415.082667 416 0 34.88-4.309333 69.546667-12.821334 103.018666a21.333333 21.333333 0 0 1-20.650666 16.085334M500.416 938.666667C271.552 938.666667 85.333333 752.042667 85.333333 522.666667c0-33.173333 3.925333-66.197333 11.626667-98.133334a21.333333 21.333333 0 0 1 41.493333 10.005334A375.637333 375.637333 0 0 0 128 522.666667C128 728.512 295.04 896 500.416 896a21.333333 21.333333 0 1 1 0 42.666667" /></svg>